<mxfile host="app.diagrams.net" modified="2022-09-15T04:15:47.820Z" agent="5.0 (Macintosh; Intel Mac OS X 10_15_7) AppleWebKit/605.1.15 (KHTML, like Gecko) Version/15.5 Safari/605.1.15" etag="fK3ZdfaW0tSLPt7CnUke" version="20.3.0" type="github">
  <diagram id="2nRnGkOvx9WkdemG99g3" name="Page-1">
    <mxGraphModel dx="946" dy="645" grid="1" gridSize="10" guides="1" tooltips="1" connect="1" arrows="1" fold="1" page="1" pageScale="1" pageWidth="827" pageHeight="1169" math="0" shadow="0">
      <root>
        <mxCell id="0" />
        <mxCell id="1" parent="0" />
        <mxCell id="hnNGf1M_szR0S2anJD9H-3" value="&lt;br&gt;&lt;br&gt;&lt;br&gt;&lt;br&gt;&lt;br&gt;&lt;br&gt;&lt;br&gt;&lt;br&gt;&lt;br&gt;&lt;br&gt;&lt;br&gt;&lt;br&gt;&lt;br&gt;&lt;br&gt;&lt;br&gt;&lt;br&gt;&lt;br&gt;&lt;br&gt;&lt;br&gt;&lt;br&gt;&lt;br&gt;&lt;br&gt;&lt;br&gt;&lt;br&gt;&lt;br&gt;&lt;br&gt;&lt;br&gt;&lt;br&gt;&lt;br&gt;&lt;br&gt;&lt;br&gt;LMS" style="rounded=0;whiteSpace=wrap;html=1;direction=south;" vertex="1" parent="1">
          <mxGeometry x="289" y="80" width="281" height="520" as="geometry" />
        </mxCell>
        <mxCell id="hnNGf1M_szR0S2anJD9H-4" value="Login" style="ellipse;whiteSpace=wrap;html=1;" vertex="1" parent="1">
          <mxGeometry x="369.5" y="130" width="120" height="80" as="geometry" />
        </mxCell>
        <mxCell id="hnNGf1M_szR0S2anJD9H-5" value="Return book" style="ellipse;whiteSpace=wrap;html=1;" vertex="1" parent="1">
          <mxGeometry x="369.5" y="230" width="120" height="80" as="geometry" />
        </mxCell>
        <mxCell id="hnNGf1M_szR0S2anJD9H-6" value="Add member" style="ellipse;whiteSpace=wrap;html=1;" vertex="1" parent="1">
          <mxGeometry x="369.5" y="330" width="120" height="80" as="geometry" />
        </mxCell>
        <mxCell id="hnNGf1M_szR0S2anJD9H-8" value="Add book" style="ellipse;whiteSpace=wrap;html=1;" vertex="1" parent="1">
          <mxGeometry x="369.5" y="440" width="120" height="80" as="geometry" />
        </mxCell>
        <mxCell id="hnNGf1M_szR0S2anJD9H-9" value="Student" style="shape=umlActor;verticalLabelPosition=bottom;verticalAlign=top;html=1;outlineConnect=0;" vertex="1" parent="1">
          <mxGeometry x="90" y="140" width="30" height="60" as="geometry" />
        </mxCell>
        <mxCell id="hnNGf1M_szR0S2anJD9H-10" value="Lib" style="shape=umlActor;verticalLabelPosition=bottom;verticalAlign=top;html=1;outlineConnect=0;" vertex="1" parent="1">
          <mxGeometry x="730" y="140" width="30" height="60" as="geometry" />
        </mxCell>
        <mxCell id="hnNGf1M_szR0S2anJD9H-13" value="" style="endArrow=classic;html=1;rounded=0;" edge="1" parent="1" target="hnNGf1M_szR0S2anJD9H-4">
          <mxGeometry width="50" height="50" relative="1" as="geometry">
            <mxPoint x="140" y="170" as="sourcePoint" />
            <mxPoint x="440" y="310" as="targetPoint" />
            <Array as="points">
              <mxPoint x="120" y="170" />
              <mxPoint x="140" y="170" />
            </Array>
          </mxGeometry>
        </mxCell>
        <mxCell id="hnNGf1M_szR0S2anJD9H-14" value="" style="endArrow=classic;html=1;rounded=0;entryX=0.308;entryY=0.712;entryDx=0;entryDy=0;entryPerimeter=0;" edge="1" parent="1" source="hnNGf1M_szR0S2anJD9H-9" target="hnNGf1M_szR0S2anJD9H-3">
          <mxGeometry width="50" height="50" relative="1" as="geometry">
            <mxPoint x="390" y="360" as="sourcePoint" />
            <mxPoint x="440" y="310" as="targetPoint" />
          </mxGeometry>
        </mxCell>
        <mxCell id="hnNGf1M_szR0S2anJD9H-17" value="" style="endArrow=classic;html=1;rounded=0;entryX=0.996;entryY=0.35;entryDx=0;entryDy=0;entryPerimeter=0;" edge="1" parent="1" target="hnNGf1M_szR0S2anJD9H-6">
          <mxGeometry width="50" height="50" relative="1" as="geometry">
            <mxPoint x="720" y="180" as="sourcePoint" />
            <mxPoint x="440" y="310" as="targetPoint" />
          </mxGeometry>
        </mxCell>
        <mxCell id="hnNGf1M_szR0S2anJD9H-18" value="" style="endArrow=classic;html=1;rounded=0;" edge="1" parent="1" target="hnNGf1M_szR0S2anJD9H-8">
          <mxGeometry width="50" height="50" relative="1" as="geometry">
            <mxPoint x="720" y="190" as="sourcePoint" />
            <mxPoint x="440" y="310" as="targetPoint" />
          </mxGeometry>
        </mxCell>
      </root>
    </mxGraphModel>
  </diagram>
</mxfile>
